<svg width="1014" height="160" viewBox="0 0 1014 160" fill="none" xmlns="http://www.w3.org/2000/svg">
<path d="M984 23.8574L1000.72 7.13867L1007.79 14.21L993 29H1014V39H991L1008 56L1000.93 63.0713L984 46.1416V69H974V48L959 63L951.929 55.9287L968.856 39H945V29H966.858L952.139 14.2803L959.21 7.20996L974 22V0H984V23.8574Z" fill="#2EF943"/>
<path d="M0 157.123L50.3335 22.8767H87.3859L138.201 157.123H102.207L92.6791 129.89H44.3666L35.0313 157.123H0ZM51.5846 103.329H85.2686L68.3304 56.9178L51.5846 103.329Z" fill="white"/>
<path d="M162.008 157.123V51.9315H126.11V22.8767H230.05V51.9315H194.152V157.123H162.008Z" fill="white"/>
<path d="M241.911 157.123V22.8767H296.575C306.584 22.8767 315.31 24.5068 322.753 27.7671C330.259 30.9635 336.034 35.6301 340.076 41.7671C344.182 47.9041 346.235 55.2557 346.235 63.8219C346.235 70.4064 344.984 76.2237 342.482 81.274C339.98 86.2603 336.547 90.4155 332.184 93.7397C327.821 97.0639 322.881 99.5571 317.363 101.219L353.646 157.123H315.727L285.7 107.74H273.863V157.123H241.911ZM273.863 82.2329H292.726C299.399 82.2329 304.595 80.9224 308.317 78.3014C312.102 75.6804 313.995 71.5251 313.995 65.8356C313.995 60.0822 312.198 55.863 308.605 53.1781C305.077 50.4292 300.008 49.0548 293.4 49.0548H273.863V82.2329Z" fill="white"/>
<path d="M351.148 157.123L401.482 22.8767H438.534L489.349 157.123H453.355L443.827 129.89H395.515L386.179 157.123H351.148ZM402.733 103.329H436.417L419.478 56.9178L402.733 103.329Z" fill="white"/>
<path d="M498.127 157.123V22.8767H530.079V128.068H584.166V157.123H498.127Z" fill="white"/>
<path d="M598.322 157.123V22.8767H630.274V157.123H598.322Z" fill="white"/>
<path d="M716.708 160C702.785 160 690.499 157.155 679.848 151.466C669.198 145.776 660.889 137.721 654.922 127.301C648.955 116.881 645.972 104.575 645.972 90.3836C645.972 80.0274 647.704 70.5662 651.169 62C654.697 53.3699 659.638 45.9224 665.99 39.6575C672.406 33.3927 679.944 28.5662 688.606 25.1781C697.332 21.726 706.859 20 717.189 20C728.417 20 737.849 21.4064 745.484 24.2192C753.119 27.032 760.016 31.0274 766.175 36.2055L750.2 62.3836C746.478 58.5479 741.987 55.7032 736.726 53.8493C731.465 51.9315 725.658 50.9726 719.307 50.9726C713.019 50.9726 707.405 51.8995 702.465 53.7534C697.588 55.5434 693.418 58.1324 689.953 61.5205C686.553 64.9087 683.954 69 682.158 73.7945C680.361 78.589 679.463 83.9589 679.463 89.9041C679.463 98.0868 681.067 105.087 684.275 110.904C687.547 116.721 692.199 121.196 698.23 124.329C704.261 127.397 711.479 128.932 719.884 128.932C725.915 128.932 731.882 128.037 737.785 126.247C743.751 124.393 749.398 121.42 754.723 117.329L769.351 144.082C763.128 148.877 755.685 152.744 747.024 155.685C738.362 158.562 728.257 160 716.708 160Z" fill="white"/>
<path d="M781.043 157.123V22.8767H812.995V80.1233L858.709 22.8767H898.552L848.7 84.5342L905 157.123H863.906L827.623 108.603L812.995 125.192V157.123H781.043Z" fill="white"/>
</svg>
